<?xml version="1.0" standalone="no"?>
<!DOCTYPE svg PUBLIC "-//W3C//DTD SVG 20010904//EN"
 "http://www.w3.org/TR/2001/REC-SVG-20010904/DTD/svg10.dtd">
<svg version="1.0" xmlns="http://www.w3.org/2000/svg"
 width="3000.000000pt" height="500.000000pt" viewBox="0 0 3000.000000 500.000000"
 preserveAspectRatio="xMidYMid meet">

<g transform="translate(0.000000,500.000000) scale(0.100000,-0.100000)"
fill="#000000" stroke="none">
<path d="M2225 4603 c-46 -5 -149 -24 -157 -29 -3 -2 70 -115 163 -251 93
-135 169 -254 169 -263 0 -9 -5 -21 -11 -27 -9 -9 -57 55 -191 250 -99 144
-184 266 -188 271 -21 21 -336 -89 -494 -172 -258 -136 -499 -334 -678 -558
-70 -88 -170 -240 -210 -317 l-29 -59 24 -32 c99 -129 930 -1131 939 -1131 6
0 191 386 412 857 220 472 406 858 413 858 6 0 13 -6 16 -12 3 -10 9 -8 24 4
19 17 26 7 295 -384 151 -221 279 -403 284 -405 5 -1 143 243 307 544 238 438
295 550 285 560 -21 20 -257 137 -346 171 -199 76 -520 146 -540 118 -5 -6
-66 -136 -138 -289 -71 -152 -133 -276 -138 -274 -35 12 -27 38 84 273 62 131
119 254 126 272 l14 32 -202 -1 c-112 -1 -216 -4 -233 -6z"/>
<path d="M14270 4305 l0 -205 -430 0 -430 0 0 -215 0 -215 1140 0 1140 0 0
215 0 215 -430 0 -430 0 0 205 0 205 -280 0 -280 0 0 -205z"/>
<path d="M15900 3065 l0 -1445 275 0 275 0 0 625 0 625 260 0 260 0 -2 228 -3
227 -257 3 -258 2 0 590 0 590 -275 0 -275 0 0 -1445z"/>
<path d="M21010 3780 l0 -730 -170 0 -170 0 0 680 0 680 -257 -2 -258 -3 0
-1800 0 -1800 258 -3 257 -2 0 905 0 905 170 0 170 0 0 -985 0 -985 265 0 265
0 0 1935 0 1935 -265 0 -265 0 0 -730z"/>
<path d="M24740 2565 l0 -1935 275 0 275 0 0 1935 0 1935 -275 0 -275 0 0
-1935z"/>
<path d="M26390 3820 l0 -610 1323 2 1322 3 3 218 2 217 -1050 0 -1050 0 0
170 0 170 1035 0 1035 0 0 220 0 220 -1310 0 -1310 0 0 -610z"/>
<path d="M6000 3685 l0 -675 268 0 c358 0 798 23 875 46 16 5 17 -9 17 -205
l0 -211 -740 0 -740 0 0 -220 0 -220 1750 0 1750 0 0 220 0 220 -735 0 -735 0
0 185 0 185 580 0 580 0 0 220 0 220 -390 0 -390 0 0 235 0 235 383 2 382 3 3
218 2 217 -660 0 -660 0 0 -585 0 -585 -74 0 -74 0 -5 33 c-4 17 -12 87 -18
154 -7 68 -16 128 -19 134 -5 8 -36 6 -110 -6 -155 -24 -357 -44 -532 -51
l-158 -7 0 236 0 237 385 0 385 0 0 220 0 220 -660 0 -660 0 0 -675z"/>
<path d="M9860 3685 l0 -675 268 0 c358 0 798 23 875 46 16 5 17 -9 17 -205
l0 -211 -740 0 -740 0 0 -220 0 -220 1750 0 1750 0 0 220 0 220 -735 0 -735 0
0 185 0 185 580 0 580 0 0 220 0 220 -390 0 -390 0 0 235 0 235 383 2 382 3 3
218 2 217 -660 0 -660 0 0 -585 0 -585 -74 0 -74 0 -5 33 c-4 17 -12 87 -18
154 -7 68 -16 128 -19 134 -5 8 -36 6 -110 -6 -155 -24 -357 -44 -532 -51
l-158 -7 0 236 0 237 385 0 385 0 0 220 0 220 -660 0 -660 0 0 -675z"/>
<path d="M3349 3711 c-286 -527 -305 -559 -322 -544 -16 15 -18 15 -31 -3 -8
-10 -17 -17 -19 -14 -3 3 -131 188 -284 411 l-278 405 -404 -863 c-223 -475
-411 -863 -417 -863 -7 0 -16 5 -20 11 -5 8 -12 5 -23 -9 -15 -20 -22 -13
-217 226 -511 626 -727 888 -744 906 -19 19 -20 19 -41 -30 -39 -90 -97 -268
-125 -389 -29 -119 -29 -123 -29 -445 0 -304 2 -332 23 -430 57 -255 178 -547
307 -740 91 -136 247 -322 259 -309 2 2 126 266 276 587 207 442 277 582 289
580 9 -2 17 -10 19 -19 1 -8 -122 -280 -273 -604 l-277 -590 49 -44 c131 -119
305 -242 443 -311 45 -23 83 -40 84 -38 2 2 112 204 245 450 133 245 249 454
257 465 14 17 14 17 25 0 10 -17 12 -17 29 -2 10 9 22 15 27 12 4 -3 199 -240
433 -526 332 -406 430 -520 448 -521 12 0 66 15 119 33 83 28 99 37 118 67 12
19 160 290 330 602 295 543 309 567 327 551 17 -15 19 -15 32 3 8 10 16 17 19
14 2 -3 62 -90 133 -193 148 -217 128 -210 207 -64 110 200 192 433 232 652
29 159 32 706 4 678 -4 -4 -126 -224 -270 -488 -337 -621 -306 -567 -329 -553
-14 9 -22 9 -33 -1 -19 -15 25 -75 -493 679 -411 599 -457 675 -415 675 7 0
220 -301 472 -669 253 -368 459 -664 459 -659 0 5 131 250 291 544 160 294
295 544 300 556 19 51 -84 365 -186 567 -108 213 -241 392 -416 562 -88 84
-284 244 -301 244 -2 0 -142 -252 -309 -559z m-346 -602 c8 -12 -92 -202 -408
-785 -230 -423 -420 -771 -422 -774 -2 -2 -13 2 -24 9 -18 10 -23 10 -34 -6
-9 -12 -17 -15 -23 -8 -5 6 -123 149 -262 318 -238 291 -252 310 -241 334 11
24 14 21 129 -118 339 -413 398 -483 408 -486 6 -2 200 343 430 766 231 424
423 769 428 768 5 -2 14 -10 19 -18z"/>
<path d="M22280 2860 l0 -1300 930 0 930 0 0 1300 0 1300 -930 0 -930 0 0
-1300z m1320 0 l0 -860 -390 0 -390 0 0 860 0 860 390 0 390 0 0 -860z"/>
<path d="M18380 3810 l0 -220 486 0 487 0 -7 -81 c-11 -121 -59 -342 -106
-480 -75 -225 -190 -437 -338 -620 -139 -172 -402 -398 -626 -535 -81 -50 -93
-61 -83 -74 7 -9 79 -96 161 -193 l148 -177 37 22 c302 184 563 401 753 628
306 365 501 835 573 1380 17 132 35 379 35 493 l0 77 -760 0 -760 0 0 -220z"/>
<path d="M14420 3524 c-14 -2 -59 -9 -100 -15 -160 -24 -340 -100 -462 -196
-156 -123 -258 -331 -258 -528 0 -145 63 -317 157 -431 121 -144 327 -253 563
-295 97 -18 363 -18 460 0 382 68 647 292 705 594 78 409 -197 756 -675 852
-73 15 -341 28 -390 19z m246 -423 c133 -25 224 -84 272 -175 23 -44 27 -63
27 -141 0 -81 -3 -95 -30 -144 -60 -109 -176 -169 -345 -178 -269 -15 -443 99
-458 297 -12 171 98 303 283 338 67 13 191 14 251 3z"/>
<path d="M25950 2790 l0 -220 1750 0 1750 0 0 220 0 220 -1750 0 -1750 0 0
-220z"/>
<path d="M26350 2145 l0 -205 1063 -2 1062 -3 3 -107 3 -108 -1066 0 -1065 0
0 -525 0 -525 1385 0 1385 0 0 210 0 210 -1110 0 -1110 0 0 120 0 120 1060 0
1060 0 0 510 0 510 -1335 0 -1335 0 0 -205z"/>
<path d="M6060 1660 l0 -220 1060 0 1060 0 0 -405 0 -405 275 0 275 0 0 625 0
625 -1335 0 -1335 0 0 -220z"/>
<path d="M9920 1660 l0 -220 1060 0 1060 0 0 -405 0 -405 275 0 275 0 0 625 0
625 -1335 0 -1335 0 0 -220z"/>
<path d="M13960 1270 l0 -560 1315 0 1315 0 0 220 0 220 -1040 0 -1040 0 0
340 0 340 -275 0 -275 0 0 -560z"/>
<path d="M3662 1138 c-166 -304 -297 -555 -291 -556 5 -2 53 20 107 49 191
102 359 227 510 378 96 97 242 277 242 299 0 15 -250 382 -260 382 -4 0 -142
-249 -308 -552z"/>
<path d="M1886 1024 c-137 -250 -247 -457 -245 -458 10 -9 205 -77 284 -100
208 -58 237 -61 570 -61 270 1 321 3 398 20 48 11 88 23 90 26 2 6 -835 1029
-843 1029 -3 0 -117 -205 -254 -456z"/>
</g>
</svg>
